<?xml version="1.0" ?><svg viewBox="0 0 50 50" xmlns="http://www.w3.org/2000/svg"><defs><style>.a{fill:#f0d5a8;}.a,.d,.f,.g,.h,.i,.j,.k{stroke:#45413c;stroke-linecap:round;stroke-linejoin:round;stroke-width:1.25px;}.b{fill:#f7e5c6;}.c{fill:#fff5e3;}.d{fill:none;}.e{fill:#debb7e;}.f{fill:#915e3a;}.g{fill:#bf8256;}.h{fill:#ffdf3d;}.i{fill:#ff6242;}.j{fill:#46b000;}.k{fill:#fffce5;}.l{fill:#6dd627;}.m{fill:#9ceb60;}.n{fill:#ffbe3d;}</style></defs><title/><path class="a" d="M41.067,8.355a13.815,13.815,0,0,1,7.375,13.126,3.242,3.242,0,0,1-1.189,2.307c-5.819,5.251-12.819,12.251-29.319,16.751l-4-19C22.266,16,29.5,12.47,38.348,8.239A2.93,2.93,0,0,1,41.067,8.355Z"/><path class="b" d="M39.015,7.325c3.513,1.948,3.343,9.564,2.891,14.152a4.2,4.2,0,0,1-4.014,3.778c-5.924.244-17.933.234-25.458-3.216C19.4,16.069,27.419,11.515,36.219,7.3A3.067,3.067,0,0,1,39.015,7.325Z"/><path class="c" d="M38.219,10.3a3.067,3.067,0,0,1,2.8.024,3.851,3.851,0,0,1,.318.222,5.466,5.466,0,0,0-2.318-3.222,3.067,3.067,0,0,0-2.8-.024c-8.8,4.214-16.819,8.768-23.785,14.738a26.7,26.7,0,0,0,3.951,1.4A111.838,111.838,0,0,1,38.219,10.3Z"/><path class="d" d="M39.015,7.325c3.513,1.948,3.343,9.564,2.891,14.152a4.2,4.2,0,0,1-4.014,3.778c-5.924.244-17.933.234-25.458-3.216C19.4,16.069,27.419,11.515,36.219,7.3A3.067,3.067,0,0,1,39.015,7.325Z"/><path class="e" d="M9.186,25.154c4.1-5.169,9.508-5.53,13.386-2.454s4.757,8.423.656,13.593S12.659,43.16,8.782,40.085,5.085,30.324,9.186,25.154Z"/><path class="f" d="M18.676,33.888a5.07,5.07,0,0,0-8.615-3.631,3.008,3.008,0,0,0-1.537-.43,3.045,3.045,0,0,0-3.045,3.045,3.014,3.014,0,0,0,.406,1.493,3.028,3.028,0,0,0,.751,5.471,3.005,3.005,0,0,0,4.4,1.767,3.042,3.042,0,1,0,5.088-3.334A5.055,5.055,0,0,0,18.676,33.888Z"/><path class="g" d="M24.162,31.577a5.07,5.07,0,0,0-9.147-1.931,3.015,3.015,0,0,0-1.591-.131,3.046,3.046,0,0,0-2.412,3.568,3.007,3.007,0,0,0,.682,1.389A3.027,3.027,0,0,0,13.469,39.7a3.036,3.036,0,0,0,3.263,1.582A3,3,0,0,0,18.12,40.6a3.042,3.042,0,1,0,4.363-4.238A5.054,5.054,0,0,0,24.162,31.577Z"/><path class="h" d="M15.907,29.156c-.054.017-.108.031-.163.043L3.983,31.786a2,2,0,1,1-.859-3.907l11.76-2.586a2,2,0,0,1,1.023,3.863Z"/><path class="i" d="M22.608,30.6c-.028.048-.057.1-.09.142l-6.887,9.878a2,2,0,1,1-3.281-2.288l6.887-9.877A2,2,0,0,1,22.608,30.6Z"/><path class="j" d="M20.033,25.256a3.033,3.033,0,0,0,.339-2.915c-.168-.411-.636-1.991-4.24-1.526a3.024,3.024,0,0,0-1.115,1,5.063,5.063,0,1,0-5.111,8.647,3.012,3.012,0,0,0,.186,1.585,3.044,3.044,0,0,0,3.973,1.661,3,3,0,0,0,1.227-.943,3.028,3.028,0,0,0,4.776-2.772,3.006,3.006,0,0,0-.035-4.738Z"/><path class="h" d="M19.564,29.688c-.04-.011-.08-.023-.12-.037L10.949,26.64a1.5,1.5,0,1,1,1-2.822l8.495,3.011a1.5,1.5,0,0,1-.88,2.859Z"/><path class="k" d="M20.8,30.223c-.046.031-.093.061-.143.089L10.181,36.247a2,2,0,1,1-1.972-3.48l10.477-5.935A2,2,0,0,1,20.8,30.223Z"/><path class="l" d="M23.284,36.216C27.316,31.07,26.43,25.76,22.572,22.7a9.458,9.458,0,0,0-1.463-.959.921.921,0,0,0-1.148.241,2.411,2.411,0,0,0-.435,1.5,5.466,5.466,0,1,0,.363,10.836,3.224,3.224,0,0,0,3.395,1.9Z"/><path class="m" d="M17.056,26.364A6.351,6.351,0,0,1,19.2,23.736c-.072-.085-.145-.171-.219-.263a5.454,5.454,0,1,0,.61,10.874,6.577,6.577,0,0,1-1.482-1.224A6.35,6.35,0,0,1,17.056,26.364Z"/><path class="d" d="M23.284,36.216C27.316,31.07,26.43,25.76,22.572,22.7a9.458,9.458,0,0,0-1.463-.959.921.921,0,0,0-1.148.241,2.411,2.411,0,0,0-.435,1.5,5.466,5.466,0,1,0,.363,10.836,3.224,3.224,0,0,0,3.395,1.9Z"/><circle class="n" cx="38.934" cy="16.539" r="1"/><circle class="n" cx="36.934" cy="13.539" r="1"/><circle class="n" cx="34.934" cy="17.539" r="1"/></svg>